<svg id="nevoflux" xmlns="http://www.w3.org/2000/svg" viewBox="0 0 498.32 498.32"><defs><style>.cls-bg{fill:#000000;}.cls-1{fill:#ffffff;}.cls-2{fill:none;stroke:none;}</style></defs><title>nevoflux-logo-20260221</title><rect class="cls-bg" x="0" y="0" width="498.32" height="498.32"/><path class="cls-1" d="M436.46,589.4l52.79-95.31-30.47-17.27,144.34-66.67.61.73c-.68,1.25-1.34,2.5-2,3.75q-26.61,47.85-53.25,95.69c-11.5,20.62-23.18,41.15-34.63,61.81-11.93,21.54-23.6,43.21-35.54,64.74-4.59,8.28-9.13,16.66-14.54,24.39-10.83,15.49-35.52,17.63-49.51,5-7.13-6.45-11.48-14.74-16.16-22.86q-18.72-32.54-37.4-65.09c-1.93-3.37-3.66-6.85-5.52-10.26-.56-1-1.25-2-2.13-3.33-1.15,1.89-2.12,3.36-3,4.9-12.18,22.09-24.4,44.15-36.48,66.29-8.3,15.23-16.35,30.6-24.6,45.85Q280.7,697,272.13,712.07a4.75,4.75,0,0,1-3.33,2.19c-20.88.08-41.75,0-62.62-.06-1,0-1.91-.1-3.36-.17,2.56-4.62,4.92-8.85,7.25-13.09q20.81-37.91,41.59-75.82,20.91-38.16,41.8-76.34c10.39-19,20.54-38.1,31.22-56.91s34.12-22.4,49.8-7.69c3.75,3.51,6.28,8.47,8.91,13,15.51,27,30.87,54,46.32,81.05C431.82,582,434.13,585.57,436.46,589.4ZM515.27,487,436.35,629.21c-2.27-3.88-4.26-7.18-6.16-10.54q-14.19-24.95-28.33-49.9c-10-17.59-19.93-35.21-30-52.76-3.27-5.71-6.41-11.56-10.35-16.78-5.06-6.71-13.49-6.44-18.68.06a35.57,35.57,0,0,0-3.41,5.26q-25,45.81-49.87,91.64C278.77,616,267.85,635.68,257,655.43q-9.21,16.79-18.36,33.6c-1,1.87-2,3.76-3.13,6,7.14,0,13.72-.16,20.3.08,2.74.1,4.09-1,5.3-3.22,5.14-9.57,10.44-19.06,15.66-28.59q13.73-25.06,27.41-50.13,21.63-39.48,43.31-78.93c1.65-3,3.46-5.91,5.41-9.22.79,1.3,1.31,2.13,1.8,3l30.09,52.76c6.86,12,13.7,24.09,20.62,36.1,6.08,10.55,12.09,21.14,18.44,31.53,4.24,6.94,12.76,9.5,19.47,5.48a24.67,24.67,0,0,0,8.1-8.88c11.66-20.44,23-41.05,34.44-61.63q19-34.26,38-68.55,16.7-30.09,33.44-60.17c.53-.95.89-2,1.62-3.66l-59,27.6Z" transform="translate(-130.6 -313.12)"/><path class="cls-1" d="M155.79,714.24c1.44-2.43,2.47-4.08,3.42-5.78q18.85-34,37.7-68.05c6.58-11.86,13.26-23.66,19.79-35.55,9.66-17.54,19.15-35.18,28.84-52.71,15.15-27.4,30.19-54.87,45.74-82a65.58,65.58,0,0,1,27-25.63c17.37-9.14,35.6-11.23,54.3-6,18.15,5.06,32.6,15.49,42,32.42,10.18,18.42,20.67,36.66,31.12,54.93a4.32,4.32,0,0,1-.07,5.08c-3.13,5.2-6,10.57-9.16,16.26-4-6.7-7.95-13-11.69-19.45-9.84-16.88-19-34.21-29.59-50.61-9.34-14.47-23.61-21.62-41-22.08-21.5-.57-37.2,9.2-47.62,27.52-12.42,21.84-24.4,43.93-36.59,65.9-7.29,13.15-14.66,26.27-21.9,39.45-8.68,15.81-17.22,31.71-25.89,47.53Q206.38,664.26,190.45,693c-3.56,6.46-7.09,13-10.76,19.35a3.72,3.72,0,0,1-2.56,1.77C170.36,714.31,163.59,714.24,155.79,714.24Z" transform="translate(-130.6 -313.12)"/><path class="cls-1" d="M353.22,605.81c2.84,5.07,5.4,9.67,8,14.26q12.58,22.27,25.2,44.54c12.81,22.55,34.1,33.5,59.73,29.69a50.63,50.63,0,0,0,36.52-23.74c7.49-11.88,14.15-24.29,21-36.54,10.6-18.87,21.06-37.8,31.61-56.69,4.23-7.56,8.41-15.16,12.9-22.57,1.86-3.07,2.35-5.74.86-9.13a20.12,20.12,0,0,1-.27-16.57c4.79-11,19.26-16.9,29.31-12.3,14.46,6.62,16.74,22.88,10.93,33.07-4.21,7.37-11.21,9.87-19,10.42a5.72,5.72,0,0,0-5.32,3.35Q546.9,595.79,529,627.91c-9.33,16.72-18.56,33.5-28.18,50.05-8.07,13.91-19.93,23.78-34.66,30.12-24.37,10.48-47.64,7.55-70.12-5.85-12.35-7.36-20.72-18.22-27.72-30.36s-13.72-24.1-20.58-36.15c-1.77-3.12-3.65-6.18-5.35-9.33a2.84,2.84,0,0,1,0-2.35C345.8,618.11,349.36,612.23,353.22,605.81Zm216.4-75.42a7.63,7.63,0,0,0-7.55,7.61,7.54,7.54,0,0,0,7.12,7.4,7.35,7.35,0,0,0,7.85-7.24A7.68,7.68,0,0,0,569.62,530.39Z" transform="translate(-130.6 -313.12)"/><rect class="cls-2" x="0.5" y="0.5" width="497.32" height="497.32"/></svg>